<?xml version="1.0" encoding="utf-8"?>
<!-- Generator: Adobe Illustrator 24.3.0, SVG Export Plug-In . SVG Version: 6.00 Build 0)  -->
<svg version="1.1" id="Layer_1" xmlns="http://www.w3.org/2000/svg" xmlns:xlink="http://www.w3.org/1999/xlink" x="0px" y="0px"
	 width="170px" height="42px" viewBox="0 0 170 42" style="enable-background:new 0 0 170 42;" xml:space="preserve">
<style type="text/css">
	.st0{fill:#1E8676;}
</style>
<g>
	<rect y="38.4" class="st0" width="32.9" height="3.6"/>
	<path class="st0" d="M27.8,33.7l-3-7.5H8.1l-3,7.5H0.3L13.8,0H19l13.6,33.7H27.8z M16.5,4.3L9.3,22.5h14.3L16.5,4.3z"/>
	<path class="st0" d="M40.1,33.7V0h4.2v30h15.7v3.7H40.1z"/>
	<path class="st0" d="M68.9,33.7V0h13.5C89.2,0,93,4.6,93,10.2c0,5.5-3.9,10.2-10.6,10.2h-9.3v13.4H68.9z M88.6,10.2
		c0-3.8-2.7-6.4-6.7-6.4h-8.8v12.8h8.8C85.9,16.6,88.6,13.9,88.6,10.2z"/>
	<path class="st0" d="M125.4,33.7V18.2h-19.7v15.5h-4.2V0h4.2v14.5h19.7V0h4.2v33.7H125.4z"/>
	<path class="st0" d="M164.6,33.7l-3-7.5h-16.8l-3,7.5h-4.8L150.6,0h5.2l13.6,33.7H164.6z M153.2,4.3l-7.2,18.1h14.3L153.2,4.3z"/>
</g>
</svg>
