<svg xmlns="http://www.w3.org/2000/svg" width="1550" height="375"><g fill="#93da49"><path d="M273.7 105.3v96.4c0 20.5-8.2 40.2-22.7 54.8-14.6 14.5-34.3 22.7-54.9 22.7-20.5 0-40.2-8.2-54.8-22.7-14.5-14.6-22.7-34.3-22.7-54.8v-96.4c.1-5 2.2-9.7 5.7-13.1 3.6-3.5 8.3-5.4 13.3-5.4 4.9 0 9.7 1.9 13.2 5.4 3.6 3.4 5.6 8.1 5.7 13.1v95.6c0 10.5 4.2 20.6 11.6 28 7.5 7.5 17.5 11.6 28 11.6 10.6 0 20.6-4.1 28.1-11.6 7.4-7.4 11.6-17.5 11.6-28v-95.6c0-5 2-9.9 5.5-13.4 3.6-3.6 8.4-5.6 13.4-5.6 5.1 0 9.9 2 13.4 5.6 3.6 3.5 5.6 8.4 5.6 13.4M89.1 105.7v176.7c.1 6.4-.5 12.7-1.7 19-1.3 6.3-3.1 12.4-5.5 18.3q-3.6 8.8-9 16.8c-3.5 5.3-7.6 10.3-12.1 14.8q-3.8 3.7-7.9 7-4.2 3.3-8.7 6.2-4.5 2.8-9.2 5.2-4.8 2.3-9.8 4.1-.8.3-1.6.5-.8.3-1.6.4l-1.6.2q-.9.1-1.7 0c-4.4 0-8.7-1.6-12.1-4.5-3.3-2.9-5.6-6.9-6.3-11.3-.7-4.3.1-8.8 2.3-12.6 2.3-3.9 5.8-6.8 10-8.3q3-1.1 5.8-2.6 2.9-1.4 5.6-3.1 2.7-1.8 5.2-3.8t4.8-4.3q4.2-4.1 7.5-8.9 3.3-4.9 5.5-10.3t3.3-11.2.9-11.6V105.6c0-5 2-9.8 5.6-13.4 3.5-3.5 8.4-5.5 13.4-5.5s9.8 2 13.4 5.5c3.5 3.6 5.5 8.4 5.5 13.5M56.8 34.9c-1.7-1.7-3-3.7-3.9-5.9s-1.3-4.6-1.3-7 .4-4.7 1.3-6.9q1.4-3.4 3.9-6 1.3-1.3 2.8-2.3 1.5-.9 3.1-1.7 1.7-.7 3.4-1.1 1.8-.3 3.6-.4 1.8 0 3.6.4 1.7.4 3.4 1.1t3.1 1.7q1.5 1 2.8 2.3c1.8 1.7 3.2 3.7 4.1 5.9 1 2.2 1.5 4.6 1.5 7s-.5 4.8-1.5 7c-.9 2.3-2.3 4.3-4.1 5.9q-1.3 1.3-2.8 2.2-1.5 1-3.1 1.7-1.7.6-3.5 1-1.7.3-3.5.3t-3.5-.4q-1.8-.3-3.5-1-1.6-.6-3.1-1.6t-2.8-2.2"/><g fill-rule="evenodd"><path d="M414.9 276c-44.1 10.3-89.5-11.1-109.7-51.7-20.1-40.6-9.6-89.6 25.4-118.4 35-28.9 85.2-29.8 121.2-2.4V20c0-5.1 2-10 5.7-13.6 3.6-3.6 8.4-5.6 13.5-5.6s10 2 13.6 5.6c3.7 3.6 5.7 8.5 5.7 13.6v161.1c-.1 45.3-31.3 84.6-75.4 94.9m34.7-106.6q-1.1-5.6-3.4-10.9t-5.6-10-7.6-8.6q-4-4.1-8.7-7.3-4.8-3.2-10-5.4-5.3-2.3-10.9-3.5t-11.3-1.3q-5.7.2-11.3 1.4-5.6 1.3-10.8 3.5-5.3 2.3-10 5.4-4.8 3.2-8.8 7.2c-5.2 5.5-9.4 11.9-12.2 18.9s-4.2 14.5-4.2 22c0 7.6 1.4 15 4.2 22 2.8 7.1 7 13.5 12.2 18.9q4.1 3.9 8.9 6.9 4.7 3.1 10 5.2 5.2 2.1 10.8 3.2 5.5 1 11.2 1.1 5.7 0 11.2-1 5.6-1.1 10.9-3.2 5.2-2.1 10-5.2 4.8-3 8.8-7 4.3-3.9 7.6-8.6t5.6-10q2.3-5.2 3.4-10.9 1.1-5.6 1.1-11.4 0-5.7-1.1-11.4M699.6 218.4c-4.9 11.9-12.1 22.6-21.2 31.7-9 9-19.8 16.2-31.6 21.1s-24.5 7.4-37.3 7.4c-39.4 0-75-23.8-90.1-60.2s-6.7-78.3 21.1-106.1c27.9-27.9 69.9-36.3 106.3-21.2s60.2 50.6 60.2 90c0 12.8-2.5 25.5-7.4 37.3m-32.3-48.2c-.7-3.9-1.9-7.6-3.4-11.2-1.6-3.5-3.5-6.9-5.7-10.1s-4.8-6.1-7.7-8.8q-4.1-4.1-8.9-7.4-4.8-3.2-10.2-5.5-5.3-2.3-11-3.6-5.7-1.2-11.5-1.3-5.8.2-11.5 1.5-5.7 1.2-11 3.5t-10.2 5.5q-4.8 3.3-9 7.3c-5.3 5.6-9.4 12.1-12.3 19.2-2.8 7.2-4.3 14.8-4.3 22.4 0 7.7 1.5 15.3 4.3 22.5 2.9 7.1 7 13.6 12.3 19.2q4.2 3.9 9.1 7 4.8 3.1 10.2 5.2 5.3 2.1 11 3.3 5.6 1.1 11.4 1.1 5.7 0 11.4-1 5.7-1.1 11-3.2 5.4-2.2 10.2-5.3 4.9-3.1 9-7.1c2.9-2.7 5.5-5.6 7.7-8.8q3.3-4.8 5.7-10.2c1.5-3.5 2.7-7.3 3.4-11.1.8-3.8 1.1-7.7 1.1-11.6 0-3.8-.3-7.7-1.1-11.5"/></g></g><g fill="#FFFFFF"><path fill-rule="evenodd" d="M1144 182.5v76.6c.1 2.5-.3 5.1-1.3 7.5-.9 2.4-2.4 4.6-4.2 6.5-1.8 1.8-4 3.2-6.4 4.2-2.4.9-5 1.4-7.6 1.3-2.5-.2-4.9-.9-7.1-2-2.2-1-4.2-2.5-5.9-4.3s-3.1-3.8-4.1-6.1c-.9-2.3-1.5-4.7-1.6-7.1-4 3.3-8.3 6.2-12.9 8.8-4.5 2.5-9.3 4.6-14.2 6.3-5 1.6-10 2.9-15.2 3.6-5.1.7-10.4 1-15.6.8-12.8.4-25.6-1.8-37.6-6.5-12-4.6-22.9-11.7-32.2-20.6-9.2-9-16.5-19.7-21.5-31.6-5-11.8-7.6-24.5-7.5-37.4-.1-13 2.4-25.9 7.3-37.9 5-12 12.2-23 21.4-32.1C987 103.3 998 96 1010 91.1c12-5 24.9-7.5 37.9-7.4 12.9 0 25.6 2.5 37.5 7.5s22.6 12.3 31.6 21.6c8.9 9.2 15.9 20.1 20.6 32.1s6.9 24.8 6.4 37.6m-38.3 0c.2-7.8-1.1-15.5-3.9-22.7-2.8-7.3-7-13.9-12.4-19.5-5.4-5.7-11.8-10.2-18.9-13.3-7.2-3.1-14.8-4.8-22.6-5-7.9.1-15.7 1.8-23 4.8-7.3 3.1-14 7.6-19.6 13.2s-10 12.2-13.1 19.5-4.7 15.1-4.8 23c.1 7.8 1.8 15.4 4.9 22.6 3.2 7.1 7.7 13.5 13.3 18.9s12.3 9.6 19.5 12.4c7.3 2.8 15 4.1 22.8 3.9 7.6.2 15.2-1.2 22.3-4.1 7.1-2.8 13.5-7.1 18.9-12.5s9.7-11.8 12.5-18.9c2.9-7.1 4.3-14.7 4.1-22.3"/><path d="M1364.8 181.1v78.1c0 5.1-2 10-5.6 13.6s-8.5 5.6-13.6 5.6-10-2-13.6-5.6-5.7-8.5-5.7-13.6v-78.1c0-15.6-6.2-30.6-17.3-41.7-11.1-11-26.1-17.3-41.7-17.3-15.7 0-30.7 6.3-41.8 17.3a58.97 58.97 0 0 0-17.3 41.7v78.1c0 5.1-2 10-5.6 13.6s-8.5 5.6-13.6 5.6-10-2-13.6-5.6-5.6-8.5-5.6-13.6v-78.1c.2-25.6 10.6-50.1 28.9-68.2 18.2-18 42.9-28.2 68.6-28.2s50.3 10.2 68.6 28.2c18.2 18.1 28.6 42.6 28.9 68.2M1541.8 274c-1.9 1.6-4.1 2.9-6.5 3.7-2.3.7-4.8 1-7.3.8s-4.9-.9-7.1-2.1-4.1-2.8-5.7-4.7l-73.1-87.7-11.9 8.1v67.3c0 2.5-.5 5-1.4 7.3-1 2.3-2.4 4.5-4.2 6.2-1.8 1.8-3.9 3.2-6.2 4.2-2.4 1-4.9 1.5-7.4 1.5s-5-.5-7.3-1.5-4.4-2.4-6.1-4.2c-1.8-1.8-3.2-3.9-4.1-6.2s-1.4-4.8-1.3-7.3V23.2c0-2.5.4-5 1.4-7.2.9-2.3 2.3-4.4 4.1-6.1 1.7-1.8 3.8-3.2 6.1-4.1q3.4-1.5 7.2-1.5c2.5 0 5 .5 7.3 1.4 2.3 1 4.4 2.4 6.2 4.1 1.8 1.8 3.2 3.8 4.2 6.1s1.5 4.8 1.5 7.3v124l87.3-57.3c3.9-3.4 8.9-5.1 14.1-4.7 5.1.4 9.9 2.8 13.1 6.8 3.3 3.9 4.9 9.1 4.3 14.2s-3.2 9.7-7.3 12.9l-67.3 44.2 70 84.2c1.6 1.9 2.8 4.1 3.5 6.5.7 2.3.9 4.8.7 7.3-.3 2.4-1 4.8-2.2 7s-2.7 4.1-4.6 5.7"/><path fill-rule="evenodd" d="M732.4 20c.2-5 2.2-9.8 5.8-13.3s8.4-5.4 13.5-5.4c5 0 9.8 1.9 13.4 5.4s5.7 8.3 5.8 13.3v83.5c35.9-27.3 85.9-26.3 120.8 2.5 34.8 28.7 45.2 77.6 25.2 118-20 40.5-65.3 61.8-109.2 51.6-44-10.2-75.2-49.3-75.3-94.5zm40.7 172.2q1.1 5.7 3.4 11t5.6 10 7.6 8.6q4.1 3.9 8.8 7 4.8 3 10 5.1 5.3 2.1 10.9 3.2 5.5 1.1 11.2 1 5.7 0 11.2-1.1 5.6-1.1 10.8-3.2 5.3-2.1 10.1-5.1 4.7-3.1 8.9-6.9c5.2-5.5 9.3-11.9 12.1-18.9s4.2-14.5 4.2-22.1c0-7.5-1.4-15-4.2-22s-6.9-13.4-12.1-18.9q-4.1-4-8.9-7.1-4.7-3.2-10-5.5-5.2-2.2-10.8-3.5-5.6-1.2-11.3-1.4-5.7.1-11.3 1.3t-10.9 3.5q-5.2 2.2-10 5.5-4.7 3.2-8.7 7.2-4.3 3.9-7.6 8.6t-5.6 10-3.4 10.9q-1.1 5.7-1 11.4-.1 5.8 1 11.4"/></g></svg>