<svg xmlns="http://www.w3.org/2000/svg" width="1641" height="291"><g fill-rule="evenodd"><path d="M1443.06 116c.21 4.84-.5 9.68-2.09 14.26a38.395 38.395 0 0 1-18.54 21.42c-4.31 2.24-9 3.65-13.83 4.14l40.15 59.47h-23.22l-39.14-58.53h-44.1v58.86h-20.07V75.3h74.67c32.39 0 46.17 18.04 46.17 40.7m-46.84 22.31c17.27 0 26.77-8.15 26.77-22.31 0-14.17-9.64-21.99-26.77-21.99h-53.53v44.3zM1129.25 75.3h20.07v80.92c0 37.42-22.95 61.94-62.09 61.94s-62.09-24.52-62.09-61.94V75.3h20.07v78.78c0 28.73 14.85 44.57 41.89 44.57 27.03 0 41.88-15.84 41.88-44.57zm420.2 121.21h91.13v18.78h-111.27V75.3h110v18.78h-89.86v39.49h80.49v18.57h-80.49zM1474.78 75.3h20.14v140.06h-20.14zm-834.65-.33 64.44 140.32H684.5l-16.53-36.55h-71.46l-16.6 36.55h-20.07l64.7-139.99zm20.08 85.73-27.37-60.87-27.57 60.87zm579.78-85.4 64.43 140.32h-20.41l-16.52-36.55h-71.46l-16.53 36.55h-20.48l64.44-140.32zm19.33 85.4-27.56-60.87-27.57 60.87zM465.1 189.03 511.87 75.3h30.44v139.99h-19.14V96.02l-49.38 119.27H456.4L407.02 96.02v119.27h-19.14V75.3h30.51zm317.62-97.82c-7.08-.11-14.1 1.23-20.64 3.92-6.55 2.69-12.47 6.68-17.42 11.73s-8.83 11.05-11.38 17.64a52.1 52.1 0 0 0-3.49 20.7c-.26 7.06.92 14.11 3.47 20.71s6.42 12.61 11.37 17.67a52.3 52.3 0 0 0 17.43 11.75 52.3 52.3 0 0 0 20.66 3.92c4.34-.02 8.65-.6 12.84-1.72 4.19-1.13 8.22-2.79 11.99-4.94 3.76-2.15 7.23-4.77 10.33-7.81a50.8 50.8 0 0 0 8-10.18l15.45 11.82a69 69 0 0 1-11.15 13.26 69 69 0 0 1-14.09 10.07 69 69 0 0 1-16.16 6.27 69 69 0 0 1-17.21 2.07c-9.67.22-19.29-1.51-28.28-5.09s-17.16-8.93-24.03-15.74a71.9 71.9 0 0 1-15.96-23.87 71.8 71.8 0 0 1-5.33-28.19 71.8 71.8 0 0 1 5.33-28.19c3.66-8.95 9.09-17.06 15.96-23.86s15.05-12.14 24.03-15.72a72.2 72.2 0 0 1 28.28-5.07c5.8-.03 11.58.67 17.21 2.07a69.8 69.8 0 0 1 16.16 6.27c5.1 2.76 9.84 6.15 14.09 10.08a69 69 0 0 1 11.15 13.26l-15.45 11.76a50.5 50.5 0 0 0-8.02-10.16 50.3 50.3 0 0 0-10.33-7.79 50.3 50.3 0 0 0-11.98-4.92 50.5 50.5 0 0 0-12.83-1.72m216.32 54.05c.04 3.7-.2 7.39-.72 11.05s-1.32 7.28-2.38 10.82c-1.07 3.54-2.4 7-3.99 10.34a72.6 72.6 0 0 1-5.49 9.62l31.12 28.2h-27.71l-15.85-14.3a71 71 0 0 1-10.36 7.39c-3.66 2.15-7.51 3.97-11.5 5.43s-8.11 2.57-12.3 3.3c-4.18.73-8.43 1.08-12.68 1.05a72.1 72.1 0 0 1-27.73-5.62c-8.79-3.69-16.75-9.08-23.43-15.86s-11.95-14.81-15.51-23.64a71.8 71.8 0 0 1-5.19-27.78 71.7 71.7 0 0 1 21.05-50.74c13.47-13.46 31.75-21.02 50.81-21.02s37.34 7.56 50.81 21.02a71.7 71.7 0 0 1 21.05 50.74m-27.77 28.2c1.19-2.13 2.23-4.34 3.14-6.61.9-2.27 1.65-4.6 2.26-6.96.6-2.37 1.05-4.77 1.35-7.19.29-2.42.43-4.86.41-7.3a51.35 51.35 0 0 0-14.08-38.02 51.5 51.5 0 0 0-37.3-15.99c-14.11 0-27.59 5.78-37.3 15.99a51.32 51.32 0 0 0-14.09 38.02c-.25 6.93.89 13.84 3.35 20.33s6.19 12.42 10.98 17.45a52.1 52.1 0 0 0 16.89 11.83 52.3 52.3 0 0 0 20.17 4.38c2.89.01 5.79-.23 8.64-.72 2.86-.49 5.67-1.23 8.4-2.21a49.788 49.788 0 0 0 15.01-8.57l-19.61-17.77 13.38-13.36zM311 145.26c0 81.59-68.25 145.27-155.5 145.27S0 226.91 0 145.26 68.25 0 155.5 0 311 63.68 311 145.26M61.29 245.49a141.7 141.7 0 0 1-16.44-21.71c-4.78-7.74-8.79-15.92-12-24.43s-5.6-17.31-7.12-26.27c-1.53-8.97-2.19-18.06-1.98-27.15-.25-9.15.38-18.29 1.88-27.32 1.51-9.02 3.88-17.88 7.09-26.45s7.24-16.81 12.03-24.61c4.8-7.8 10.34-15.11 16.54-21.85.13-.11.23-.25.3-.4a1.17 1.17 0 0 0 0-.99c-.07-.16-.17-.3-.3-.41-.4-.74-1.2-.67-2.01 0a130.4 130.4 0 0 0-35.99 45.31c-8.45 17.6-12.84 36.87-12.84 56.39s4.39 38.79 12.84 56.39 20.75 33.08 35.99 45.3h2.01c.13-.11.23-.25.3-.4a1.17 1.17 0 0 0 0-.99c-.07-.16-.17-.3-.3-.41m47.77-39.62a80 80 0 0 1-11.69-12.59 79.5 79.5 0 0 1-8.71-14.81c-2.36-5.23-4.15-10.7-5.33-16.32s-1.75-11.35-1.7-17.09a79.29 79.29 0 0 1 7.02-33.41c2.36-5.24 5.28-10.2 8.72-14.81a79.6 79.6 0 0 1 11.69-12.58c.34-.54.67-1.14.34-1.54-.34-.4-1.14-.53-2.08 0-21.67 13.1-38.87 34.15-38.87 62.48s17.2 49.37 38.87 62.4c.94.67 1.74.54 2.08 0 .33-.46.2-1-.34-1.73m109.54-60.61c0-38.48-29.38-67.42-63.1-67.42s-63.23 28.94-63.23 67.42c0 38.49 29.77 67.69 63.23 67.69 33.72 0 63.1-29.2 63.1-67.69m23.95.2c0-28.33-17.2-49.11-38.94-62.47-.87-.67-1.67-.47-2.01 0-.33.47-.2 1 .34 1.54a79.6 79.6 0 0 1 11.69 12.58c3.44 4.61 6.36 9.57 8.72 14.8 2.36 5.24 4.15 10.71 5.33 16.33s1.75 11.35 1.69 17.09a79.488 79.488 0 0 1-7.03 33.41 79.4 79.4 0 0 1-8.71 14.8 79.3 79.3 0 0 1-11.69 12.59c-.34.54-.67 1.07-.34 1.54.34.47 1.14.6 2.01 0 21.68-13.03 38.94-33.88 38.94-62.21m9.03 100.83a130.6 130.6 0 0 0 35.97-45.31 130.41 130.41 0 0 0 0-112.77 130.6 130.6 0 0 0-35.97-45.31c-.8-.34-1.6-.4-2 0-.13.11-.23.25-.3.4a1.17 1.17 0 0 0 0 .99c.07.16.17.3.3.41a142 142 0 0 1 16.53 21.85 141.56 141.56 0 0 1 19.12 51.06c1.51 9.02 2.14 18.17 1.88 27.32.26 9.14-.37 18.29-1.88 27.32-1.5 9.02-3.87 17.88-7.08 26.45s-7.24 16.81-12.04 24.61a142 142 0 0 1-16.53 21.85c-.13.11-.23.25-.3.4a1.17 1.17 0 0 0 0 .99c.07.16.17.3.3.41.4.67 1.2.67 2 0z"/></g></svg>