<?xml version="1.0" encoding="UTF-8"?>
<svg id="Layer_1" xmlns="http://www.w3.org/2000/svg" version="1.1" viewBox="0 0 1549 480">
  <!-- Generator: Adobe Illustrator 30.2.1, SVG Export Plug-In . SVG Version: 2.1.1 Build 1)  -->
  <defs>
    <style>
      .st0 {
        fill: #fff;
        fill-rule: evenodd;
      }
    </style>
  </defs>
  <path class="st0" d="M175.1,162.1c0,6.9,4.7,5.1,11.5,6.7,5.8,1.4,9.6,3,14.6,5.4,11.3,5.5,15.1,8.2,23.4,16.5,31.4,31.5,31.9,81.7-1.8,115.6-29,29.3-74.5,30.8-107,6.1-6-4.5-6.5-8.3-13.5-10.2v98.3c24.2,12.8,46.7,12.7,74.6,12.7,75.8,0,148.7-71.2,154.4-145.7,1.8-22.4,3.1-29.8-2.7-55.2-11.4-49.2-44.6-91.1-88.6-113.3-14.4-7.2-44.5-16.9-64.9-16.9v80Z"/>
  <path class="st0" d="M16.8,174.9c10.4-20.6,17.6-29.4,33.2-45.1,26.3-26.4,69.1-47.7,106.9-47.7,0,111.1,8.2,75.3-27.4,92.7-25.5,12.5-45.4,39.8-45.4,71v189.3H.5v-198.4c0-22.7,8.7-46.6,16.3-61.8h0ZM589.7,240.4h69.1c26.3,0,47.1,7.7,54,27.8,5,14.4,5.9,35.9-6.1,47.4-6.3,6-7.6,3.1-11.5,8.5,9.4.8,19.4,8.4,23.7,14.4,22.3,31.2,2.5,76.5-41.9,76.5h-92.8v-169.2c0-4.2,1.3-5.4,5.5-5.4h0ZM667.9,295c0-19.7-15.9-16.4-36.4-16.4v30.9h18.2c10.9,0,18.2-3.7,18.2-14.5ZM673.4,364.1c0-25.5-9.6-21.8-41.9-21.8v36.4h20c12.3,0,21.9-2.2,21.9-14.6Z"/>
  <path class="st0" d="M422.4,240.4c48.2,0,113.7-8.8,128.3,33.5,10.4,29.9,1.7,51.9-22.8,68.4,20.2,30.2,12.3,36.4,40,36.4v36.4c-21.5,1.7-51,8.7-66-23.2-14.2-30.1-9.6-35.1-37.7-35.1v58.3h-47.3v-169.3c0-4.2,1.3-5.4,5.5-5.4h0ZM509,301.6c1.9-13.7-9.2-23-23-23h-21.8v41.8h16.4c15.1,0,26.4-5,28.4-18.8ZM1228,240.4c38.9,0,31.5-2.9,40.2,12.6l59.9,103.8v-116.4h32.7v174.7c-40.5,0-32.4,3.7-41.7-12.9-6.4-11.3-53.4-94.5-58.3-98.2v111.1h-32.8v-174.7Z"/>
  <path class="st0" d="M906.2,240.4h63.6c69.4,0,63.8,62.5,44.1,78.7l-7.7,5c49,11.4,43.1,91-20,91h-80v-174.7ZM993.4,289.5c0-26.7-36.7-21.8-54.5-21.8v45.4h32.7c14.9,0,21.8-8.9,21.8-23.6ZM1002.5,367.7c0-35.6-22.5-29.1-63.6-29.1v51h20c20.1,0,43.6-2.2,43.6-21.9ZM1402.6,240.4h32.8v76.4c14.1-16.3,27.6-32.3,42.2-48.7l20.8-24.7c6.3-5.2,29.3-3,42.5-3-1.8,6.7-11.1,14.9-15.9,20.5-5.7,6.8-10.4,13.6-16.4,20l-16.9,19.5c-4.2,5.5-12.6,13-14.5,20,17.3,1.5,29.1,21.7,35.8,35.2,8.5,17.1,9.9,35.8,35.1,35.8,0,17.8,2.5,25.5-5.4,25.5-32.1,0-38-3.3-53.4-34-7.6-15.2-12.6-38.8-33.9-38.8-1.8,0-9.3,10-11.3,12.3-13.5,15.2-8.7,20.5-8.7,58.6h-32.8v-174.6Z"/>
  <path class="st0" d="M1102.3,262c2.8-7.6,5.6-13.3,7.5-21.6h32.8c2.8,5.9,5.8,15.3,8.4,22.5,2.8,7.8,5.1,14.2,7.7,21.4l40.2,108.9c2,5,6.9,16.3,7.3,21.9h-32.7c-3.4-7-6.4-16.5-8.9-23.9-8.3-25.3,2.2-19.8-65.7-19.8-7.3,0-18.2,43.6-18.2,43.7h-34.5l56.1-153.1ZM1104.3,345.9h43.7l-15.4-46.6c-2.3-5.9-4-8.2-4.6-15.3-5.4,3.9-22.1,55-23.7,61.9ZM747.9,240.3h41.8c4.2,0,5.5,1.3,5.5,5.5v132.8h69.1v36.4h-116.4v-174.7ZM.4.1h83.7v78.3c0,5.8-6.9,6.8-12,9.8-21.7,12.7-39.1,29.6-54.8,48.9-9.2,11.4-11.5,21-16.9,25V.1Z"/>
</svg>